/* XPM */
static char *_621_d25c679641c6bd3ab2ba9d6d7273c5a095a7eaca1120bff83003922f19670164[] = {
/* columns rows colors chars-per-pixel */
"128 128 21 1 ",
"  c #192027",
". c #1B2126",
"X c #1A2027",
"o c #1E2226",
"O c #1F2226",
"+ c #1F2326",
"@ c #212326",
"# c #232425",
"$ c #212426",
"% c #222426",
"& c #242425",
"* c #242525",
"= c #252525",
"- c #262525",
"; c #FF7F00",
": c #FF8000",
"> c #FF8100",
", c #FF8200",
"< c #FF8300",
"1 c #FF8600",
"2 c None",
/* pixels */
"22222222222222222222222222222222222222222222222222222222222222222222222222222222222222222222222222222222222222222222222222222222",
"22222222222222222222222222222222222222222222222222222222222222222222222222222222222222222222222222222222222222222222222222222222",
"22222222222222222222222222222222222222222222222222222222222222222222222222222222222222222222222222222222222222222222222222222222",
"22222222222222222222222222222222222222222222222222222222222222222222222222222222222222222222222222222222222222222222222222222222",
"22222222222222222222222222222222222222222222222222222222222222222222222222222222222222222222222222222222222222222222222222222222",
"22222222222222222222222222222222222222222222222222222222222222222222222222222222222222222222222222222222222222222222222222222222",
"22222222222222222222222222222222222222222222222222222;;;;;;;;;;;2;;;;;;;;;222222222222222222222222222222222222222222222222222222",
"2222222222222222222222222222222222222222222222222;;;;222222;;;222222222222;;;;;2222222222222222222222222222222222222222222222222",
"222222222222222222222222222222222222222222222;;;;22222222;;22222222222222222222;;;2222222222222222222222222222222222222222222222",
"2222222222222222222222222222222222222222222;;222222222;;;222222222222222222222222;;;;2222222222222222222222222222222222222222222",
"2222222222222222222222222222222222222222;;;22222;;;2;;222222222222222;;;;;;;;;;;;;;;;;;22222222222222222222222222222222222222222",
"22222222222222222222222222222222222222;;22222222;;;;;;;;;;;;;;;;;;;;2222222222222222;;;;;222222222222222222222222222222222222222",
"222222222222222222222222222222222222;;222222;;;;;;;;22222222222222222222222222222222;22;;;;2222222222222222222222222222222222222",
"2222222222222222222222222222222222;;;;;;;;;222;;;;;;;222222222222222222222222222222;;222;;2;;22222222222222222222222222222222222",
"222222222222222222222222222222222;;;;2222222;;22;222;;22222222222222222222222222222;222222;22;;222222222222222222222222222222222",
"2222222222222222222222222222222;;222222222;;;22;222222;;222222222222222222222222222;2222222;22;;22222222222222222222222222222222",
"222222222222222222222222222222;;222222222;;2222;22222222;2222222222222222222222222;222222222;222;;222222222222222222222222222222",
"2222222222222222222222222222;;;22222222;;22222;;222222222;;22222222222222222222222;2222222222;222;;22222222222222222222222222222",
"222222222222222222222222222;;;2222222;;2222222;222222222222;;22222222222222222222;222222222222;2222;2222222222222222222222222222",
"22222222222222222222222222;;;222222;;222222222;2222222222222;;2222222222222222222;2222222222222;2222;;22222222222222222222222222",
"2222222222222222222222222;;;222222;;222222222;2222222222222222;;22222222222222222;22222222222222;2222;;2222222222222222222222222",
"22222222222222222222222;;2;22222;;22222222222;222222222222222222;222222222222222;2222222222222222;2222;;222222222222222222222222",
"2222222222222222222222;;2;2222;;222222222222;22222222222222222222;;2222222222222;22222222222222222;2222;;22222222222222222222222",
"222222222222222222222;;2;222;;22222222222222;2222222222222222222222;;2222222222;2222222222222222222;22222;2222222222222222222222",
"22222222222222222222;;2;222;;22222222222222;222222222222222222222222;;222222222;22222222222222222222;2222;;222222222222222222222",
"22222222222222222222;2;;2;;2222222222222222;22222222222222222222222222;;222222;;222222222222222222222;;222;;22222222222222222222",
"2222222222222222222;22;;;22222222222222222;2222222222222222222222222222;;22222;22222222222222222222222;;222;;2222222222222222222",
"222222222222222222;;;;;2222222222222222222;222222222222222222222222222222;;222;222222222222222222222222;;22;;2222222222222222222",
"22222222222222222;;;;;2222222222222222222;;22222222222222222222222222222222;;;22222222222222222222222222;;22;;222222222222222222",
"2222222222222222;;;;;;2222222222222222222;222222222222222222222222222222222;;;;;;222222222222222222222222;;2;2;22222222222222222",
"2222222222222222;2;;;;;222222222222222222;222222222222222222222222222222;;;;;;;22;;;;;;;222222222222222222;;;22;2222222222222222",
"222222222222222;22;;222;2222222222222222;2222222222222222222222222222;;;2222;2;222222222;;;;;;;;22222222222;;;2;2222222222222222",
"22222222222222;22;;22222;222222222222222;222222222222222222222222;;;;2222222;22;2222222222222222;;;;;;;222222;;;;222222222222222",
"22222222222222;2;2;222222;;222222222222;2222222222222222222222;;;;222222222;222;22222222222222222222222;;;;;;;;;;;22222222222222",
"2222222222222;22;2;2222222;;22222222222;2222222222222222222;;;2222222222222;2222;2222222222222222222222222222;;;;;22222222222222",
"222222222222;;2;22;222222222;222222222;2222222222222222;;;;2222222222222222;22222;2222222222222222222222222222;;;2;2222222222222",
"222222222222;2;22;22222222222;;2222222;2222222222222;;;2222222222222222222;222222;2222222222222222222222222222;;;2;2222222222222",
"22222222222;22;22;222222222222;;22222;;222222222;;;;2222222222222222222222;2222222;22222222222222222222222222;22;;;;222222222222",
"22222222222;2;222;2222222222222;;2222;2222222;;;22222222222222222222222222;22222222;2222222222222222222222222;22;2;;222222222222",
"2222222222;;;222;;222222222222222;;;;;222;;;;2222222222222222222222222222;222222222;2222222222222222222222222;22;22;;22222222222",
"2222222222;;;222;22222222222222222;;;;;;;22222222222222222222222222222222;2222222222;22222222222222222222222;2222;22;22222222222",
"2222222222;;2222;22222222222222222;;;;;222222222222222222222222222222222;;22222222222;2222222222222222222222;2222;22;;2222222222",
"222222222;;22222;22222222222222222;;;;2222222222222222222222222222222222;222222222222;2222222222222222222222;2222;222;2222222222",
"222222222;;2222;22222222222222222;;;;;;222222222222222222222222222222222;2222222222222;222222222222222222222;22222;222;222222222",
"22222222;;;2222;2222222222222222;222222;;222222222222222222222222222222;222222222222222;2222222222222222222;222222;222;222222222",
"22222222;;;2222;222222222222222;22222222:;22222222222222222222222222222;222222222222222;2222222222222222222;222222;222;222222222",
"22222222;;22222;22222222222222<22222222222<222222222222222222222222222222222222222222222<222222222222222222;2222222;222;22222222",
"2222222;;;2222;2222222222222222222222222222222222222222222222222222222222222222222222222222222222222222222;22222222;222;22222222",
"2222222;2;2222;2222222222222222222222222222222222222222222222222222222222222222222222222222222222222222222;22222222;222;22222222",
"2222222;2;2222;2222222222222===================22=======222222222222=======22==================22222222222;222222222;222;2222222",
"2222222;2;222;2222222222;222===================22=======222222222222======222====================222222222;222222222;222;2222222",
"222222;22;222;222222222;;222===================222=======2222222222=======222=====================2222222;2222222222;222;2222222",
"222222;22;222;22222222;;2222===================222=======2222222222======2222======================222222;22222222222;22;2222222",
"222222;22;222;2222222;222222==================22222=======22222222=======2222======================222222;22222222222;22;2222222",
"222222;22;22;2222222;2222222==================22222=======22222222======22222=======================2222;2222222222222;22;222222",
"222222;22;22;22222;;22222222======222222222222222222=======222222=======22222======222222222========2222;2222222222222;22;222222",
"22222;222;22;2222;;222222222======222222222222222222=======222222======222222======2222222222=======2222;2222222222222;22;222222",
"22222;22222;2222;;2222222222======2222222222222222222=======2222=======222222======2222222222=======2222;22222222222222;2;222222",
"22222;2222;;222;222222222222======2222222222222222222=======2222======2222222======2222222222=======222;222222222222222;2;222222",
"22222;2222;;22;2222222222222======22222222222222222222=======22=======2222222======2222222222=======222;222222222222222;2;222222",
"22222;2222;;;;22222222222222======22222222222222222222%======22======22222222======2222222222======-222;2222222222222222;;222222",
"22222;222;;;;222222222222222======222222222222222222222#=============22222222======2222222222======o22>22222222222222222;;222222",
"22222;222;;;;;;;;;;;;2222222======2222222222222222222222&==========-222222222======2222222222====== 22;22222222222222222;;222222",
"22222;222;;;;222222222222222======2222222222222;;;;;;:22@==========.222222222======2222222222*=====X22;222222222222222222;222222",
"22222;222;;;;222222222222222================222222222222@==========222;;;;222=====&2222222222+=====X22;;22222222222222222;222222",
"22222;222;;;2;22222222222222================2222222222222==========2222222222=====&22>;;;;;22+=====X22;;;2222222222222222;222222",
"22222;222;2;22;;222222222222================22222222222222========22222222222======2222222222+=====X22;;;;;;;;;;;;;;;;222;222222",
"22222;222;2;222;;22222222222================22222222222222========22222222222======2222222222$=====X22;;222222222222222;;;222222",
"22222;22;222;222;;2222222222================222222222222222======222222222222======2222222222======X22;222222222222222222;222222",
"22222;22;222;22222;222222222================22222222222;122======222222222222======2222222222======X22;222222222222222222;222222",
"22222;22;222;222222;22222222======22222222222222222222;;222======222222222222======2222222222======X22;222222222222222222;222222",
"22222;2;2222;2222222;;222222======222222222222222222;;22222======222222222222======2222222222====== 22;22222222222222222;;222222",
"22222;2;22222;2222222;;22222======22222222222222222;2222222======222222222222======2222222222======O22,22222222222222222;;222222",
"222222;;22222;22222222;;2222======222222222222222;;22222222======22,222222222======222222222=======-222;222222222222222;;;222222",
"222222;222222;222222222;;222======22222222222222;2222222222======22,222222222=======================222;222222222222222;2;222222",
"222222;2222222;2222222222222======222222222222;;22222222222======222;22222222======================2222;22222222222222;222222222",
"222222;2222222;2222222222222======2222222222;;2222222222222======222;22222222======================2222;22222222222222;2;2222222",
"222222;2222222;2222222222222======222222222;;22222222222222======222;22222222=====================222222;2222222222222;2;2222222",
"2222222;222222;2222222222222======2222222;;2222222222222222======222;22222222====================2222222;222222222222;22;2222222",
"2222222;2222222;222222222222======222222;;22222222222222222======2222;2222222==================222222222;222222222222;22;2222222",
"2222222;2222222;2222222222222222222222;;22222222222222222222222222222;2222222222222222222222222222222222;22222222222;22;22222222",
"2222222;2222222;222222222222222222222;;222222222222222222222222222222;2222222222222222222222222222222222;22222222222;22;22222222",
"22222222;2222222;2222222222222222,;;;22222222222222222222222222222222;222222222222222222<2222222222222222;222222222;;22;22222222",
"22222222;2222222;2222222222222222;;;;222222222222222222222222222222222;2222222222222222;22222222222222222;222222222;22;222222222",
"22222222;;222222;222222222222222;;;;;;;2222222222222222222222222222222;222222222222222;222222222222222222;222222222;22;222222222",
"222222222;;222222;2222222222222;;22;222;;22222222222222222222222222222;22222222222222;;222222222222222222;22222222;222;222222222",
"222222222;;;22222;222222222222;;222;22222;;;22222222222222222222222222;22222222222222;22222222222222222222;2222222;22;2222222222",
"2222222222;;;2222;22222222222;222222;222222;;;2222222222222222222222222;222222222222;222222222222222222222;222222;222;2222222222",
"2222222222;2;;222;222222222;;2222222;222222222;;;2222222222222222222222;22222222222;2222222222222222222222;222222;22;22222222222",
"2222222222;;2;;222;2222222;;22222222;22222222222;;;22222222222222222222;2222222222;22222222222222222222222;22222;;22;22222222222",
"22222222222;22;;22;222222;;2222222222;2222222222222;;2222222222222222222;22222222;;22222222222222222222222;22222;22;222222222222",
"22222222222;;22;;2;22222;222222222222;222222222222222;;;2222222222222222;22222222;2222222222222222222222222;2222;22;222222222222",
"222222222222;222;;;;222;2222222222222;222222222222222222;;22222222222222;2222222;22222222222222222222222222;222;22;2222222222222",
"222222222222;;222;;;;;;222222222222222;2222222222222222222;;;22222222222;222222;222222222222222222222222222;222;22;2222222222222",
"2222222222222;2222;;;;2222222222222222;222222222222222222222;;;2222222222;2222;2222222222222222222222222222;22;22;22222222222222",
"22222222222222;222;;;;2222222222222222;222222222222222222222222;;22222222;222;;2222222222222222222222222222;22;2;;22222222222222",
"22222222222222;;22;;;;2222222222222222;;2222222222222222222222222;;;22222;222;222222222222222222222222222222;;;;;222222222222222",
"222222222222222;2222;;;2222222222222222;2222222222222222222222222222;;222;;;;222222222222222222222222222222;;;;;2222222222222222",
"2222222222222222;2222;2;;22222222222222;222222222222222222222222222222;;;;;;;22222222222222222222222222222;;;;;;2222222222222222",
"2222222222222222;;2222;2;;2222222222222;22222222222222222222222222222222;;;;;;;;;;;;;;;;;;;;;;;;;;;;;;;;;;;;;;;22222222222222222",
"22222222222222222;2222;22;;2222222222222;2222222222222222222222222222222;;;;;22222222222222222222222222222;;;;222222222222222222",
"222222222222222222;2222;222;222222222222;222222222222222222222222222222;;;;;22222222222222222222222222222;;;;2222222222222222222",
"2222222222222222222;222;2222;22222222222;2222222222222222222222222222;;2222;2222222222222222222222222222;;;;;2222222222222222222",
"22222222222222222222;222;2222;;2222222222;2222222222222222222222222;;222222;222222222222222222222222222;22;;22222222222222222222",
"22222222222222222222;;22;22222;;222222222;22222222222222222222222;;22222222;2222222222222222222222222;;22;;222222222222222222222",
"222222222222222222222;;22;22222;;22222222;2222222222222222222222;;2222222222;22222222222222222222222;;22;;2222222222222222222222",
"2222222222222222222222;;2;2222222;22222222;2222222222222222222;;222222222222;2222222222222222222222;222;;22222222222222222222222",
"22222222222222222222222;;;;2222222;2222222;22222222222222222;;22222222222222;22222222222222222222;;222;;222222222222222222222222",
"2222222222222222222222222;;22222222;;22222;222222222222222;;22222222222222222;222222222222222222;;222;;2222222222222222222222222",
"22222222222222222222222222;;22222222;;22222;2222222222222;;222222222222222222;22222222222222222;2222;;22222222222222222222222222",
"222222222222222222222222222;;22222222;;2222;22222222222;;22222222222222222222;2222222222222222;2222;2222222222222222222222222222",
"2222222222222222222222222222;;222222222;222;222222222;;22222222222222222222222;2222222222222;;222;;22222222222222222222222222222",
"222222222222222222222222222222;;22222222;222;222222;;;222222222222222222222222;222222222222;;222;;222222222222222222222222222222",
"2222222222222222222222222222222;;;;;22222;;2;22222;;22222222222222222222222222;22222222222;222;;22222222222222222222222222222222",
"222222222222222222222222222222222;;;;;;;22;;;;22;;2222222222222222222222222222;222222222;;222;;222222222222222222222222222222222",
"2222222222222222222222222222222222;;2222;;;;;;;;2222222222222222222222222222222;2222222;;22;;22222222222222222222222222222222222",
"222222222222222222222222222222222222;;22222;;;;;2222222222222222222222222222222;222222;22;;2222222222222222222222222222222222222",
"22222222222222222222222222222222222222;;2222;;;;;;;;;;;;;2222222222222222222222;22222;;;;;22222222222222222222222222222222222222",
"2222222222222222222222222222222222222222;;;22222;;2222222;;;;;;;;22222222222222;;;;;;;;22222222222222222222222222222222222222222",
"2222222222222222222222222222222222222222222;;22222;;2222222222222;;;;;;;;22222;;;;;;;2222222222222222222222222222222222222222222",
"222222222222222222222222222222222222222222222;;;;222;;22222222222222222222;;;;;;;;2222222222222222222222222222222222222222222222",
"2222222222222222222222222222222222222222222222222;;;;;;;222222222222222222;;;;22222222222222222222222222222222222222222222222222",
"22222222222222222222222222222222222222222222222222222;;;;;;;;;222;;;;;;;;;222222222222222222222222222222222222222222222222222222",
"22222222222222222222222222222222222222222222222222222222222222222222222222222222222222222222222222222222222222222222222222222222",
"22222222222222222222222222222222222222222222222222222222222222222222222222222222222222222222222222222222222222222222222222222222",
"22222222222222222222222222222222222222222222222222222222222222222222222222222222222222222222222222222222222222222222222222222222",
"22222222222222222222222222222222222222222222222222222222222222222222222222222222222222222222222222222222222222222222222222222222",
"22222222222222222222222222222222222222222222222222222222222222222222222222222222222222222222222222222222222222222222222222222222"
};
