/* XPM */
static char *_2780_f06f72d637b187a18caeb633eef3f309f265863db734e830a906bc567eedd49d[] = {
/* columns rows colors chars-per-pixel */
"64 64 37 1 ",
"  c #161F27",
". c #171F27",
"X c #131D28",
"o c #182027",
"O c #192027",
"+ c #192127",
"@ c #1B2026",
"# c #1A2027",
"$ c #1A2127",
"% c #1B2127",
"& c #1C2126",
"* c #1D2126",
"= c #1C2127",
"- c #1C2226",
"; c #1D2226",
": c #1E2226",
"> c #1F2226",
", c #1E2326",
"< c #1F2326",
"1 c #202326",
"2 c #212326",
"3 c #222425",
"4 c #232425",
"5 c #222426",
"6 c #242425",
"7 c #242525",
"8 c #252525",
"9 c #262525",
"0 c #262625",
"q c #352B22",
"w c #342B23",
"e c #392D22",
"r c #FF7F00",
"t c #FF8000",
"y c #FF8100",
"u c #FF8400",
"i c None",
/* pixels */
"iiiiiiiiiiiiiiiiiiiiiiiiiiiiiiiiiiiiiiiiiiiiiiiiiiiiiiiiiiiiiiii",
"iiiiiiiiiiiiiiiiiiiiiiiiiiiiiiiiiiiiiiiiiiiiiiiiiiiiiiiiiiiiiiii",
"iiiiiiiiiiiiiiiiiiiiiiiiiiiiiiiiiiiiiiiiiiiiiiiiiiiiiiiiiiiiiiii",
"iiiiiiiiiiiiiiiiiiiiiiiiiiiiiiiiiiiiiiiiiiiiiiiiiiiiiiiiiiiiiiii",
"iiiiiiiiiiiiiiiiiiiiiiiiiiiiirrriiiiiiiiiiiiiiiiiiiiiiiiiiiiiiii",
"iiiiiiiiiiiiiiiiiiiiiiiiiiiiiiiiiiiiiiiirriiiiiiiiiiiiiiiiiiiiii",
"iiiiiiiiiiiiiiiiiiiiiiiirrrriiiiiiiiiiiiiirriiiiiiiiiiiiiiiiiiii",
"iiiiiiiiiiiiiiiiiirriiirrrriiiiiiiiiiiiiiiiiriiiiiiiiiiiiiiiiiii",
"iiiiiiiiiiiiiiiiriiiiiiiiiiiiiiiiiiiiiiiiiiiiiiiiiiiiiiiiiiiiiii",
"iiiiiiiiiiiiiiiriiiiiiiiiiiiiiiiiiiiiiiiiiiiiiiiiiiiiiiiiiiiiiii",
"iiiiiiiiiiiiiiriiiiiiiiiiiiiiiiiiiiiiiiiiiiiiiiiiiiiiiiiiiiiiiii",
"iiiiiiiiiiiiiriiiiiiiiiiiiiiiiiiiiiiiiiiiiiiiiiiiiiiiiiiiiiiiiii",
"iiiiiiiiiiiiriiiiiiiiiiiiiiiiiiiiiiiiiiiiiiiiiiiiriiiiiiiiiiiiii",
"iiiiiiiiiiirriiiiiiiiiiiiiiiiiiiiiiiiiiiiiiiiiiiiiiiiriiiiiiiiii",
"iiiiiiiiiirriiiiiiiiiiiiiiiiiiiiiiiiiiiiiiiiiiiiiiiiiriiiiiiiiii",
"iiiiiiiiirrriiiiiiiiiiiiiiiiiiiiiiiiirrriiiiiiiiiiiiirriiiiiiiii",
"iiiiiiiiiiriiiiiiiiiiiiiiiiiiiiiiiiiiiiiiiiiiiiiiiiiirrriiiiiiii",
"iiiiiiiiiriiiiiiiiiiiiiiiiiiiiiiiiiiiiiiiiiiiiiiiiiiiirriiiiiiii",
"iiiiiiiriiiiiiiiiiiiiiiiiiiiiiiiiiiiiiiiiiiiiiiiiiiiiirrriiiiiii",
"iiiiiiiriiiiiiiiiiiiiiiiiiiiiiiiiiiiiiiiiiiiiiiiiiiiiiiiriiiiiii",
"iiiiiiriiiiiiiiiirrriiiiiiiiiiiiiiiiiiiiiiiiiiiiiiiiiiiiiriiiiii",
"iiiiiiriiiiiiiiiirrriiiiiiiiiiiiiiiiiiiiiiiiiiiiiiiiiiiiiiiiiiii",
"iiiiiriiiiiiiiiiiiiiiiiiiiiiiiiiiiiiiiiiiiiiiiiiiiiiiiiiiiiiiiii",
"iiiiiriiiiiiiiiiiiiiiiiiiiiiiiiiiiiiiiiiiiiiiiiiiiiiiiiiiiiiiiii",
"iiiiiriiiiiiiiiiiiiiiiiiiiiiiiiiiiiiiiiiiiiiiiiiiiiiiiiiiiiiiiii",
"iiiiiiiiiiiiiiqO58887:>8i888iiiiii7:4i888881:888iiiiiiiiiiiiiiii",
"iiiiiiiiiiiiii=888888888ii888iiii8888i88888888888iiiiiiiiiiiiiii",
"iiiiiiiiiiiiii&88888888iii888iiii888ii88888888888iiiiiiiiiiiiiii",
"iiiiiiiiiiiiii8888iiiiiiiii888ii8888ii888iiiii888oiiiiiiiiiiiiii",
"iiiiiiriiiiiii7888iiiiiiiii588ii888iii888iiiii888$iiiiiiiiiiiiii",
"iiiiiiriiiiiii%888iiiiiiiiii388888*iii688iiiii7871iiiiiiiiiriiii",
"iiiiirriiiiiiiw288iiiiiiiiii*7888%iiii$87iiiii@82iiiiiiiiiiiiiii",
"iiiiiiriiiiiii76888888%iiiiii7888.iiii+8:iiiii,72iiyiiiiiiiiiiii",
"iiiiiiiiiiiiii:8888888<iiiiii;889iiiii-84iiiii;72iiyiiiiiiiiiiii",
"iiiiiiiiiiiiii08888888iiiiiiii28;iiiii888iiiii&82iiiiiiiiiiiiiii",
"iiiiiiiiiiiiii:888iiiiiiiiiiii57:iiiii888iiiii882iiiiiiiiiiriiii",
"iiiiriiiiiiiii<788iiiiiiiiiiii871iiiii888iiiii8875iiiiiiiiiriiii",
"iiiiriiiiiiiiie288iiiiiiiiiiii871iiiii88888888888iiiiiiiiiiriiii",
"iiiiiiiiiiiiii4683iiiiiiiiiiii88#iiiii88888888886iiiiiiiiiiiiiii",
"iiiiiiiiiiiiiii8OXiiiiiiiiiiii88 iiiii88882o.488iiiiiiiiiiiiiiii",
"iiiiiiiiiiiiiiiiiiiiiiiiiiiiiiiiiiiiiiiiiiiiiiiiiiiiiiiiiiiiiiii",
"iiiiiiiiiiiiiiiiiutiiiiiiiiiiiiiiiiiiiiiiiiiiiiiiiiiiiiiiiiiiiii",
"iiiiiriiiiiiiiiiirriiiiiiiiiiiiiiiiiiiiiiiiiiiiiiiiiiiiiiiiiiiii",
"iiiiiiriiiiiiiiiiiiiiiiiiiiiiiiiiiiiiiiiiiiiiiiiiiiiiiiiiiiiiiii",
"iiiiiiiiiiiiiiiiiiiiiiiiiiiiiiiiiiiiiiiiiiiiiiiiiiiiiiiiiiiiiiii",
"iiiiiiiiiiiiiiiiiiiiiiiiiiiiiiiiiiiiiiiiiiiiiiiiiiiiiiiiiiiiiiii",
"iiiiiiiiiirriiiiiiiiiiiiiiiiiiiiiiiiiiiiiiiiiiiiiiiiiiiiiiiiiiii",
"iiiiiiiiiirriiiiiiiiiiiiiiiiiiiiiiiiiiiiiiiiiiiiiiiiiiiriiiiiiii",
"iiiiiiiiiiiriiiiiiiiiiiiiiiiiiiiiiiirriiiiiiiiiiiiiiirrriiiiiiii",
"iiiiiiiiiriiiiiiiiiiiiiiiiiiiiiiiiiirrriiiiiiiiiiiiirrriiiiiiiii",
"iiiiiiiiiiiiiiiiiiiiiiiiiiiiiiiiiiiiiriiiiiiiiiiiiiirriiiiiiiiii",
"iiiiiiiiiiiiiiiiiiiiiiiiiiiiiiiiiiiiiiiiiiiiiiiiiiiiriiiiiiiiiii",
"iiiiiiiiiiiiiiiiiiiiiiiiiiiiiiiiiiiiiiiiiiiiiiiiiiiiiiiiiiiiiiii",
"iiiiiiiiiiiiiriiiiiiiiiiiiiiiiiiiiiiiiiiiiiiiiiiiiiiiiiiiiiiiiii",
"iiiiiiiiiiiiiiriiiiriiiiiiiiiiiiiiiiiiiiiiiiiiiiiiiiiiiiiiiiiiii",
"iiiiiiiiiiiiiiiiiiiiiiiiiiiiiiiiiiiiiiiiiiiiiiiiiiiiiiiiiiiiiiii",
"iiiiiiiiiiiiiiiiirriirriiiiiiiiiiiiiiiiiiiiiiiiiiiiiiiiiiiiiiiii",
"iiiiiiiiiiiiiiiiiiiiiirrriiiiiiiiiiiiiiiiiiriiiiiiiiiiiiiiiiiiii",
"iiiiiiiiiiiiiiiiiiiiiiiiiriiiiiiiiiiiiirrrriiiiiiiiiiiiiiiiiiiii",
"iiiiiiiiiiiiiiiiiiiiiiiiiiriiiiiiiiiirrrriiiiiiiiiiiiiiiiiiiiiii",
"iiiiiiiiiiiiiiiiiiiiiiiiiiirriiiiiiiiiiiiiiiiiiiiiiiiiiiiiiiiiii",
"iiiiiiiiiiiiiiiiiiiiiiiiiiiiiiiiiiiiiiiiiiiiiiiiiiiiiiiiiiiiiiii",
"iiiiiiiiiiiiiiiiiiiiiiiiiiiiiiiiiiiiiiiiiiiiiiiiiiiiiiiiiiiiiiii",
"iiiiiiiiiiiiiiiiiiiiiiiiiiiiiiiiiiiiiiiiiiiiiiiiiiiiiiiiiiiiiiii"
};
