/* XPM */
static char *_4683_8786ce37bc6939b4ff8ad97f5eea0f89e357f4d718f674970f1959480fef1f61[] = {
/* columns rows colors chars-per-pixel */
"16 16 23 1 ",
"  c #0F1C29",
". c #171E27",
"X c #161F27",
"o c #171F27",
"O c #101C28",
"+ c #111C28",
"@ c #111D28",
"# c #111C29",
"$ c #111D29",
"% c #131D28",
"& c #161F28",
"* c #182027",
"= c #192027",
"- c #1A2027",
"; c #1C2126",
": c #1E2226",
"> c #362C22",
", c #47331F",
"< c #48331F",
"1 c #4E361E",
"2 c #55391D",
"3 c #403020",
"4 c None",
/* pixels */
"4444444444444444",
"4444444444444444",
"4444444444444444",
"4444444444444444",
"4444444444444444",
"4444444444444444",
"444O=4*4%&o$>444",
"444;444X14443444",
"444- 44:4424<444",
"444+444.44#@,444",
"4444444444444444",
"4444444444444444",
"4444444444444444",
"4444444444444444",
"4444444444444444",
"4444444444444444"
};
