/* XPM */
static char *_367_5db44d07e9e2be081c992bcfb3f2224cbd27f22def77ac31d0cfc7a0ea2a0786[] = {
/* columns rows colors chars-per-pixel */
"32 32 42 1 ",
"  c #0C1B29",
". c #171F27",
"X c #181F27",
"o c #111D29",
"O c #121D28",
"+ c #131E28",
"@ c #141E28",
"# c #151E28",
"$ c #151F28",
"% c #182027",
"& c #192027",
"* c #1A2027",
"= c #1A2127",
"- c #1B2127",
"; c #1C2126",
": c #1C2127",
"> c #1D2226",
", c #1C2227",
"< c #1D2227",
"1 c #1E2226",
"2 c #222325",
"3 c #202326",
"4 c #212326",
"5 c #222425",
"6 c #232425",
"7 c #222426",
"8 c #232426",
"9 c #242425",
"0 c #242525",
"q c #252525",
"w c #262525",
"e c #312A23",
"r c #3B2E21",
"t c #382D22",
"y c #633E1A",
"u c #6F4318",
"i c #794717",
"p c #7A4817",
"a c #FF7F00",
"s c #FF8400",
"d c #FF8500",
"f c None",
/* pixels */
"ffffffffffffffffffffffffffffffff",
"ffffffffffffffffffffffffffffffff",
"ffffffffffffaafffffffaffffffffff",
"ffffffffffffffffffffffffffffffff",
"ffffffffffffffffffffffffffffffff",
"ffffffffffffffffffffffffffffffff",
"fffffaffffffffffffffffffffffffff",
"ffffaffffffffffffffafffffffaffff",
"ffffffffffffffffffffffffffffafff",
"ffffffffffffffffffffffffffffffff",
"ffffffffssffffffffffffffffffffff",
"ffffffffffffffffffffffffffffffff",
"fffffff@&%56fqfff1>39=27ffffffff",
"fffffff:qq0ffqqff0fqqq3q1fffffff",
"fffffff8fffff-0fw1f6wfff,fffffff",
"ffaffff%qfffff>q<ffe*fff$uffffff",
"fffffff:qq;fffr3#fft#fff pffffff",
"fffffff7w4#ffffofff-4fff#iffffff",
"fffffff%fffffff+yff<wff7-fffffff",
"fffffffOfffffff>fff.q1X6&fffffff",
"ffffffffffffffffffffffffffffffff",
"ffffffffdfffffffffffffffffffffff",
"ffffffffffffffffffffffffffffffff",
"ffffafffffffffffffffffffffffffff",
"fffffffffffffffffffffffffffaafff",
"ffffffffffffffffffaffffffffaffff",
"ffffffffffffffffffffffffffffffff",
"ffffffffffffffffffffffffffffffff",
"ffffffffffffffffffffffffffffffff",
"fffffffffffaffffffffffffffffffff",
"ffffffffffffffffffffafffffffffff",
"ffffffffffffffffffffffffffffffff"
};
